<svg xmlns="http://www.w3.org/2000/svg" version="1.1" xmlns:xlink="http://www.w3.org/1999/xlink" xmlns:svgjs="http://svgjs.com/svgjs" width="512" height="512" x="0" y="0" viewBox="0 0 48 48" style="enable-background:new 0 0 512 512" xml:space="preserve"><g><g><path d="m44 13h-4-32-4c-.55 0-1 .45-1 1v4 12 4c0 .55.45 1 1 1h4 32 4c.55 0 1-.45 1-1v-4-12-4c0-.55-.45-1-1-1zm-39 2h1.82c-.3.85-.97 1.51-1.82 1.82zm0 18v-1.82c.85.3 1.51.97 1.82 1.82zm38 0h-1.82c.3-.85.97-1.51 1.82-1.82zm0-3.9c-1.96.4-3.5 1.94-3.9 3.9h-30.2c-.4-1.96-1.94-3.5-3.9-3.9v-10.2c1.96-.4 3.5-1.94 3.9-3.9h30.2c.4 1.96 1.94 3.5 3.9 3.9zm0-12.28c-.85-.3-1.51-.97-1.82-1.82h1.82z" fill="#ffffff" data-original="#000000"/><path d="m24 16c-4.41 0-8 3.59-8 8s3.59 8 8 8 8-3.59 8-8-3.59-8-8-8zm0 14c-3.31 0-6-2.69-6-6s2.69-6 6-6 6 2.69 6 6-2.69 6-6 6z" fill="#ffffff" data-original="#000000"/><path d="m27.45 21.17-5.17 3.45-1.45-2.17c-.31-.46-.93-.58-1.39-.28s-.58.93-.28 1.39l2 3c.2.28.52.44.84.44.19 0 .38-.05.55-.17l6-4c.46-.31.58-.93.28-1.39-.3-.45-.93-.58-1.38-.27z" fill="#ffffff" data-original="#000000"/></g></g></svg>