<svg xmlns="http://www.w3.org/2000/svg" version="1.1" xmlns:xlink="http://www.w3.org/1999/xlink" xmlns:svgjs="http://svgjs.com/svgjs" width="512" height="512" x="0" y="0" viewBox="0 0 48 48" style="enable-background:new 0 0 512 512" xml:space="preserve"><g><g><path d="m43 41.91v-6c0-.55-.45-1-1-1h-36c-.55 0-1 .45-1 1v6c0 .55.45 1 1 1h36c.55 0 1-.44 1-1zm-2-1h-34v-4h34z" fill="#ffffff" data-original="#000000" class=""/><path d="m26 5.09h-4c-.55 0-1 .45-1 1v16.76l-4.29-4.29c-.39-.39-1.02-.39-1.41 0l-2.83 2.83c-.19.19-.29.44-.29.71s.11.52.29.71l10.83 10.83c.2.2.45.29.71.29s.51-.1.71-.29l10.83-10.83c.19-.19.29-.44.29-.71s-.11-.52-.29-.71l-2.83-2.83c-.39-.39-1.02-.39-1.41 0l-4.31 4.28v-16.75c0-.56-.45-1-1-1zm6 15.58 1.41 1.41-9.41 9.42-9.41-9.41 1.41-1.42 5.29 5.29c.29.29.72.37 1.09.22s.62-.52.62-.92v-18.17h2v18.17c0 .4.24.77.62.92.37.16.8.07 1.09-.22z" fill="#ffffff" data-original="#000000" class=""/><path d="m16 39.91h16c.55 0 1-.45 1-1s-.45-1-1-1h-16c-.55 0-1 .45-1 1s.45 1 1 1z" fill="#ffffff" data-original="#000000" class=""/></g></g></svg>