<svg xmlns="http://www.w3.org/2000/svg" version="1.1" xmlns:xlink="http://www.w3.org/1999/xlink" xmlns:svgjs="http://svgjs.com/svgjs" width="512" height="512" x="0" y="0" viewBox="0 0 48 48" style="enable-background:new 0 0 512 512" xml:space="preserve"><g><g><path d="m14 20.5h3c.38 0 .73-.21.89-.55l1-2.01 3.17 7.93c.15.38.52.63.93.63h.05c.43-.02.79-.31.91-.72l2.87-10.03 1.19 5.96c.07.36.34.65.69.76s.73.01 1-.25l1.71-1.71h2.59c.55 0 1-.45 1-1s-.45-1-1-1h-3c-.27 0-.52.11-.71.29l-.68.68-1.63-8.17c-.09-.45-.48-.78-.94-.8-.46-.03-.88.28-1 .72l-3.2 11.19-2.91-7.28c-.15-.37-.49-.61-.89-.63-.39-.02-.76.2-.94.55l-1.72 3.45h-2.38c-.55 0-1 .45-1 1s.45.99 1 .99z" fill="#ffffff" data-original="#000000"/><path d="m44 6.5h-40c-.55 0-1 .45-1 1v22 5c0 .55.45 1 1 1h17v4h-5c-.55 0-1 .45-1 1s.45 1 1 1h6 4 6c.55 0 1-.45 1-1s-.45-1-1-1h-5v-4h17c.55 0 1-.45 1-1v-5-22c0-.55-.45-1-1-1zm-19 33h-2v-4h2zm18-6h-17-4-17v-3h38zm0-5h-38v-20h38z" fill="#ffffff" data-original="#000000"/></g></g></svg>