<svg xmlns="http://www.w3.org/2000/svg" version="1.1" xmlns:xlink="http://www.w3.org/1999/xlink" xmlns:svgjs="http://svgjs.com/svgjs" width="512" height="512" x="0" y="0" viewBox="0 0 48 48" style="enable-background:new 0 0 512 512" xml:space="preserve"><g><g><path d="m9.13 45h29.75c.55 0 1-.45 1-1v-36c0-.27-.11-.52-.29-.71l-4-4c-.2-.18-.45-.29-.71-.29h-25.75c-.55 0-1 .45-1 1v40c0 .55.44 1 1 1zm1-40h24.34l3.41 3.41v34.59h-27.75z" fill="#ffffff" data-original="#000000"/><path d="m13.88 15h15c.55 0 1-.45 1-1s-.45-1-1-1h-15c-.55 0-1 .45-1 1s.44 1 1 1z" fill="#ffffff" data-original="#000000"/><path d="m34.13 19h-20.25c-.55 0-1 .45-1 1s.45 1 1 1h20.25c.55 0 1-.45 1-1s-.45-1-1-1z" fill="#ffffff" data-original="#000000"/><path d="m34.13 25h-20.25c-.55 0-1 .45-1 1s.45 1 1 1h20.25c.55 0 1-.45 1-1s-.45-1-1-1z" fill="#ffffff" data-original="#000000"/><path d="m34.13 31h-20.25c-.55 0-1 .45-1 1s.45 1 1 1h20.25c.55 0 1-.45 1-1s-.45-1-1-1z" fill="#ffffff" data-original="#000000"/><path d="m34.13 37h-20.25c-.55 0-1 .45-1 1s.45 1 1 1h20.25c.55 0 1-.45 1-1s-.45-1-1-1z" fill="#ffffff" data-original="#000000"/></g></g></svg>