<svg xmlns="http://www.w3.org/2000/svg" version="1.1" xmlns:xlink="http://www.w3.org/1999/xlink" xmlns:svgjs="http://svgjs.com/svgjs" width="512" height="512" x="0" y="0" viewBox="0 0 48 48" style="enable-background:new 0 0 512 512" xml:space="preserve"><g><path d="m44.05 20-5.69-.28c-.29-.99-.69-1.94-1.18-2.84l3.82-4.23c.36-.4.34-1-.03-1.38l-4.24-4.24c-.38-.38-.98-.39-1.38-.03l-4.22 3.82c-.91-.49-1.86-.89-2.84-1.18l-.29-5.69c-.03-.53-.47-.95-1-.95h-6c-.53 0-.97.42-1 .95l-.28 5.69c-.99.29-1.94.69-2.84 1.18l-4.22-3.82c-.39-.36-1-.34-1.38.03l-4.24 4.24c-.39.38-.4.98-.04 1.38l3.82 4.22c-.49.91-.89 1.86-1.18 2.84l-5.69.29c-.53.03-.95.47-.95 1v6c0 .53.42.97.95 1l5.69.28c.29.99.69 1.94 1.18 2.84l-3.82 4.23c-.36.4-.34 1 .03 1.38l4.24 4.24c.38.38.98.39 1.38.03l4.22-3.82c.91.49 1.86.89 2.84 1.18l.29 5.69c.03.53.47.95 1 .95h6c.53 0 .97-.42 1-.95l.28-5.69c.99-.29 1.94-.69 2.84-1.18l4.22 3.82c.39.36 1 .34 1.38-.03l4.24-4.24c.38-.38.39-.98.03-1.38l-3.82-4.22c.49-.91.89-1.86 1.18-2.84l5.7-.29c.53-.03.95-.47.95-1v-6c0-.53-.42-.97-.95-1zm-1.05 6.05-5.46.27c-.44.02-.82.33-.92.76-.31 1.29-.82 2.52-1.51 3.65-.23.38-.18.86.11 1.19l3.67 4.06-2.9 2.9-4.06-3.67c-.33-.3-.81-.34-1.19-.11-1.14.69-2.37 1.2-3.66 1.52-.43.1-.74.48-.76.92l-.27 5.46h-4.1l-.27-5.46c-.02-.44-.33-.82-.76-.92-1.29-.31-2.52-.82-3.66-1.52-.38-.23-.86-.18-1.19.11l-4.06 3.67-2.9-2.9 3.67-4.06c.3-.33.34-.81.11-1.19-.69-1.14-1.2-2.37-1.51-3.65-.1-.43-.48-.74-.92-.76l-5.46-.27v-4.1l5.46-.27c.44-.02.82-.33.92-.76.31-1.29.82-2.52 1.51-3.65.23-.38.18-.86-.11-1.19l-3.67-4.06 2.9-2.9 4.06 3.67c.33.3.81.34 1.19.11 1.14-.69 2.37-1.2 3.66-1.52.43-.1.74-.48.76-.92l.27-5.46h4.1l.27 5.46c.02.44.33.82.76.92 1.29.31 2.52.82 3.66 1.52.38.23.86.18 1.19-.11l4.06-3.67 2.9 2.9-3.67 4.06c-.3.33-.34.81-.11 1.19.69 1.14 1.2 2.37 1.51 3.65.1.43.48.74.92.76l5.46.27z" fill="#ffffff" data-original="#000000"/><path d="m24 16c-4.41 0-8 3.59-8 8s3.59 8 8 8 8-3.59 8-8-3.59-8-8-8zm0 14c-3.31 0-6-2.69-6-6s2.69-6 6-6 6 2.69 6 6-2.69 6-6 6z" fill="#ffffff" data-original="#000000"/></g></svg>