<svg xmlns="http://www.w3.org/2000/svg" version="1.1" xmlns:xlink="http://www.w3.org/1999/xlink" xmlns:svgjs="http://svgjs.com/svgjs" width="512" height="512" x="0" y="0" viewBox="0 0 48 48" style="enable-background:new 0 0 512 512" xml:space="preserve"><g><g><path d="m8 39.36h5v4.64c0 .55.45 1 1 1h20c.55 0 1-.45 1-1v-4.64h5c.55 0 1-.45 1-1v-14.36c0-.55-.45-1-1-1h-5.08c-.43-3.01-2.78-5.4-5.76-5.9 1.73-1.46 2.84-3.65 2.84-6.1 0-4.41-3.59-8-8-8s-8 3.59-8 8c0 2.45 1.11 4.64 2.84 6.1-2.98.5-5.33 2.89-5.76 5.9h-5.08c-.55 0-1 .45-1 1v14.36c0 .56.45 1 1 1zm25 3.64h-18v-3.64h18zm-15-32c0-3.31 2.69-6 6-6s6 2.69 6 6-2.69 6-6 6-6-2.69-6-6zm2 8h8c2.41 0 4.43 1.72 4.9 4h-17.8c.47-2.28 2.49-4 4.9-4zm-11 6h30v12.36h-30z" fill="#ffffff" data-original="#000000"/><path d="m17.95 28.54c-.39-.39-1.02-.39-1.41 0l-1.41 1.41-1.41-1.41c-.39-.39-1.02-.39-1.41 0s-.39 1.02 0 1.41l1.41 1.41-1.41 1.41c-.39.39-.39 1.02 0 1.41.2.2.45.29.71.29s.51-.1.71-.29l1.41-1.41 1.41 1.41c.2.2.45.29.71.29s.51-.1.71-.29c.39-.39.39-1.02 0-1.41l-1.41-1.41 1.41-1.41c.37-.39.37-1.02-.02-1.41z" fill="#ffffff" data-original="#000000"/><path d="m26.83 28.41c-.39-.39-1.02-.39-1.41 0l-1.42 1.42-1.41-1.41c-.39-.39-1.02-.39-1.41 0s-.39 1.02 0 1.41l1.41 1.41-1.41 1.41c-.39.39-.39 1.02 0 1.41.2.2.45.29.71.29s.51-.1.71-.29l1.4-1.4 1.41 1.41c.2.2.45.29.71.29s.51-.1.71-.29c.39-.39.39-1.02 0-1.41l-1.41-1.41 1.41-1.41c.39-.4.39-1.04 0-1.43z" fill="#ffffff" data-original="#000000"/><path d="m35.71 28.29c-.39-.39-1.02-.39-1.41 0l-1.41 1.41-1.41-1.41c-.39-.39-1.02-.39-1.41 0s-.39 1.02 0 1.41l1.41 1.41-1.41 1.41c-.39.39-.39 1.02 0 1.41.2.2.45.29.71.29s.51-.1.71-.29l1.41-1.41 1.41 1.41c.2.2.45.29.71.29s.51-.1.71-.29c.39-.39.39-1.02 0-1.41l-1.41-1.41 1.41-1.41c.37-.38.37-1.02-.02-1.41z" fill="#ffffff" data-original="#000000"/></g></g></svg>