<?xml version="1.0" encoding="utf-8"?>
<!-- Generator: Adobe Illustrator 26.0.2, SVG Export Plug-In . SVG Version: 6.00 Build 0)  -->
<svg version="1.1" id="Слой_1" xmlns:svgjs="http://svgjs.com/svgjs"
	 xmlns="http://www.w3.org/2000/svg" xmlns:xlink="http://www.w3.org/1999/xlink" x="0px" y="0px" viewBox="0 0 512 512"
	 style="enable-background:new 0 0 512 512;" xml:space="preserve">
<style type="text/css">
	.st0{fill:#7AB393;}
	.st1{fill:#387984;}
	.st2{fill:#B6DFBB;}
	.st3{fill:#111111;}
	.st4{fill:#4F8F82;}
</style>
<g>
	<g id="colored_x5F_line">
		<g id="XMLID_13_">
			<g>
				<path class="st0" d="M472.6,157.5v196.9h-39.4v78.8h-78.8v39.4H157.5v-39.4H78.8v-78.8H39.4V157.5h39.4V78.8h78.8V39.4h196.9
					v39.4h78.8v78.8H472.6z"/>
				<path class="st1" d="M472.6,157.5H512v196.9h-39.4V157.5z"/>
				<path class="st1" d="M433.2,354.5h39.4v78.8h-39.4V354.5z"/>
				<path class="st1" d="M433.2,78.8h39.4v78.8h-39.4V78.8z"/>
				<path class="st1" d="M354.5,433.2h78.8v39.4h-78.8V433.2z"/>
				<path class="st1" d="M354.5,39.4h78.8v39.4h-78.8V39.4z"/>
				<path class="st1" d="M157.5,472.6h196.9V512H157.5V472.6z"/>
				<path class="st1" d="M157.5,0h196.9v39.4H157.5V0z"/>
				<path class="st1" d="M78.8,433.2h78.8v39.4H78.8V433.2z"/>
				<path class="st1" d="M78.8,39.4h78.8v39.4H78.8V39.4z"/>
				<path class="st1" d="M39.4,354.5h39.4v78.8H39.4V354.5z"/>
				<path class="st1" d="M39.4,78.8h39.4v78.8H39.4V78.8z"/>
				<path class="st1" d="M0,157.5h39.4v196.9H0V157.5z"/>
			</g>
		</g>
		<path class="st2" d="M39.4,157.5h39.4v118.2H39.4V157.5z"/>
		<path class="st2" d="M78.8,78.8h39.4v78.8H78.8V78.8z"/>
		<path class="st2" d="M118.2,78.8h39.4v39.4h-39.4V78.8z"/>
		<path class="st2" d="M157.5,39.4h118.2v39.4H157.5V39.4z"/>
		<path class="st2" d="M39.4,315.1h39.4v39.4H39.4V315.1z"/>
		<g>
			<path class="st3" d="M275.7,236.3h39.4v39.4h-39.4V236.3z"/>
			<path class="st3" d="M236.3,275.7h39.4v39.4h-39.4V275.7z"/>
			<path class="st3" d="M196.9,315.1h39.4v39.4h-39.4V315.1z"/>
			<path class="st3" d="M118.2,315.1h39.4v39.4h-39.4V315.1z"/>
			<path class="st3" d="M315.1,196.9h39.4v39.4h-39.4V196.9z"/>
			<path class="st3" d="M354.5,157.5h39.4v39.4h-39.4V157.5z"/>
			<path class="st3" d="M157.5,354.5h39.4v39.4h-39.4V354.5z"/>
		</g>
		<path class="st4" d="M236.3,433.2h118.2v39.4H236.3V433.2z"/>
		<path class="st4" d="M354.5,393.8h78.8v39.4h-78.8V393.8z"/>
		<path class="st4" d="M393.8,354.5h39.4v39.4h-39.4V354.5z"/>
		<path class="st4" d="M433.2,275.7h39.4v78.8h-39.4V275.7z"/>
	</g>
</g>
</svg>
