<svg xmlns="http://www.w3.org/2000/svg" viewBox="0 0 120 150"><defs><style>.cls-1{fill:#fe6f38;}</style></defs><g id="Слой_2" data-name="Слой 2"><g id="Слой_1-2" data-name="Слой 1"><polygon class="cls-1" points="120 60 120 100 110 100 110 120 100 120 100 140 80 140 80 150 30 150 30 140 20 140 20 130 10 130 10 120 0 120 0 90 10 90 10 60 20 60 20 40 30 40 30 10 40 10 40 0 60 0 60 40 50 40 50 70 40 70 40 100 70 100 70 110 60 110 60 130 50 130 50 140 60 140 60 130 70 130 70 120 80 120 80 90 90 90 90 80 60 80 60 70 70 70 70 40 100 40 100 50 110 50 110 60 120 60"/></g></g></svg>