<svg xmlns="http://www.w3.org/2000/svg" viewBox="0 0 170 170"><defs><style>.cls-1{fill:#5662f6;}.cls-2{fill:#fff;}</style></defs><g id="Слой_2" data-name="Слой 2"><g id="Слой_1-2" data-name="Слой 1"><rect class="cls-1" x="100" y="80" width="20" height="20"/><rect class="cls-1" x="50" y="80" width="20" height="20"/><path class="cls-1" d="M160,60V40H150V30H140V20H130V10H110V0H60V10H40V20H30V30H20V40H10V60H0v50H10v20H20v10H30v10H40v10H60v10h50V160h20V150h10V140h10V130h10V110h10V60Zm-10,60H140v10H130v10H110V130H100V120h10V110H60v10H70v10H60v10H40V130H30V120H20V70H30V50H40V40H50V30H70V40H60V50h50V40H100V30h20V40h10V50h10V70h10Z"/><path class="cls-2" d="M140,70V50H130V40H120V30H100V40h10V50H60V40H70V30H50V40H40V50H30V70H20v50H30v10H40v10H60V130H70V120H60V110h50v10H100v10h10v10h20V130h10V120h10V70ZM70,100H50V80H70Zm50,0H100V80h20Z"/></g></g></svg>