<svg xmlns="http://www.w3.org/2000/svg" viewBox="0 0 150 150"><defs><style>.cls-1{fill:#fff;}.cls-2{fill:#229ed9;}</style></defs><g id="Слой_2" data-name="Слой 2"><g id="Слой_1-2" data-name="Слой 1"><polygon class="cls-1" points="110 30 110 50 100 50 100 90 90 90 90 120 70 120 70 110 60 110 60 90 70 90 70 80 80 80 80 60 70 60 70 70 60 70 60 80 50 80 50 100 30 100 30 90 20 90 20 80 30 80 30 70 50 70 50 60 60 60 60 50 80 50 80 40 90 40 90 30 110 30"/><path class="cls-2" d="M140,50V30H130V20H120V10H100V0H50V10H30V20H20V30H10V50H0v50H10v20H20v10H30v10H50v10h50V140h20V130h10V120h10V100h10V50Zm-30,0H100V90H90v30H70V110H60V90H70V80H80V60H70V70H60V80H50v20H30V90H20V80H30V70H50V60H60V50H80V40H90V30h20Z"/></g></g></svg>