<svg xmlns="http://www.w3.org/2000/svg" viewBox="0 0 150 150"><defs><style>.cls-1{fill:#07f;}.cls-2{fill:#fff;}</style></defs><g id="Слой_2" data-name="Слой 2"><g id="Слой_1-2" data-name="Слой 1"><path class="cls-1" d="M140,20V10H130V0H20V10H10V20H0V130H10v10H20v10H130V140h10V130h10V20ZM90,110V90H80v30H50V110H40V100H30V90H20V40H40V80H50V90H60V40H80V70H90V50h10V40h20V60H110V70H100V80h10v20h10v20H100V110Z"/><polygon class="cls-2" points="100 70 100 80 110 80 110 100 120 100 120 120 100 120 100 110 90 110 90 90 80 90 80 120 50 120 50 110 40 110 40 100 30 100 30 90 20 90 20 40 40 40 40 80 50 80 50 90 60 90 60 40 80 40 80 70 90 70 90 50 100 50 100 40 120 40 120 60 110 60 110 70 100 70"/></g></g></svg>