<svg xmlns="http://www.w3.org/2000/svg" viewBox="0 0 910 570.93"><defs><style>.cls-1{fill:#fff;}</style></defs><g id="Слой_2" data-name="Слой 2"><g id="Слой_1-2" data-name="Слой 1"><path class="cls-1" d="M687,278.71,814.94,84.76H749.55L653.55,236,558.18,84.76H490.53V414l-41.78-91.9L333,84.76h-73v37.1a109.79,109.79,0,0,0-11.88-9.46Q226.52,97.65,198.14,91a261.24,261.24,0,0,0-59.33-6.61H84.43v45.49h51.83q47.2,0,73.52,20.6t26.31,59.32q0,43-27.27,64.24Q183,294.2,136.28,295.22H84.43v47.34h175V486.48h56.77V163.17L348,236l121.52,250.5h81L652.27,324.2,753.7,486.49h71.76ZM543.47,392.15V165.72l75,115.45Z"/><path class="cls-1" d="M881.86,0H0V570.93H910V0Zm0,542.78H28.14V28.14H881.86Z"/></g></g></svg>